<svg aria-hidden="true" style="position: absolute; width: 0; height: 0; overflow: hidden;" version="1.1" xmlns="http://www.w3.org/2000/svg" xmlns:xlink="http://www.w3.org/1999/xlink">
<defs>
<symbol id="icon-twitter-white" viewBox="0 0 32 32">
<path  d="M32 6.080c-1.19 0.52-2.46 0.87-3.78 1.030 1.361-0.814 2.384-2.074 2.877-3.574l0.013-0.046c-1.197 0.723-2.591 1.275-4.076 1.576l-0.084 0.014c-1.202-1.286-2.909-2.087-4.803-2.087-3.628 0-6.57 2.942-6.57 6.57 0 0.531 0.063 1.047 0.182 1.542l-0.009-0.045c-5.467-0.277-10.276-2.877-13.493-6.826l-0.027-0.034c-0.563 0.948-0.895 2.091-0.895 3.311 0 2.266 1.147 4.264 2.892 5.445l0.023 0.015c-1.094-0.030-2.113-0.326-3.002-0.827l0.032 0.017v0.070c0.007 3.163 2.241 5.802 5.217 6.432l0.043 0.008c-0.51 0.142-1.095 0.224-1.7 0.224-0.449 0-0.888-0.045-1.312-0.132l0.042 0.007c0.869 2.628 3.271 4.505 6.121 4.58l0.009 0c-2.214 1.743-5.042 2.796-8.116 2.796-0.558 0-1.108-0.035-1.648-0.102l0.064 0.007c2.829 1.85 6.293 2.95 10.014 2.95 0.016 0 0.033-0 0.049-0h-0.003c12.080 0 18.68-10 18.68-18.67 0-0.29-0.010-0.57-0.030-0.85 1.3-0.92 2.4-2.070 3.29-3.4z"></path>
</symbol>
<symbol id="icon-twitter" viewBox="0 0 32 32">
<path  d="M32 6.080c-1.19 0.52-2.46 0.87-3.78 1.030 1.361-0.814 2.384-2.074 2.877-3.574l0.013-0.046c-1.197 0.723-2.591 1.275-4.076 1.576l-0.084 0.014c-1.202-1.286-2.909-2.087-4.803-2.087-3.628 0-6.57 2.942-6.57 6.57 0 0.531 0.063 1.047 0.182 1.542l-0.009-0.045c-5.467-0.277-10.276-2.877-13.493-6.826l-0.027-0.034c-0.563 0.948-0.895 2.091-0.895 3.311 0 2.266 1.147 4.264 2.892 5.445l0.023 0.015c-1.094-0.030-2.113-0.326-3.002-0.827l0.032 0.017v0.070c0.007 3.163 2.241 5.802 5.217 6.432l0.043 0.008c-0.51 0.142-1.095 0.224-1.7 0.224-0.449 0-0.888-0.045-1.312-0.132l0.042 0.007c0.869 2.628 3.271 4.505 6.121 4.58l0.009 0c-2.214 1.743-5.042 2.796-8.116 2.796-0.558 0-1.108-0.035-1.648-0.102l0.064 0.007c2.829 1.85 6.293 2.95 10.014 2.95 0.016 0 0.033-0 0.049-0h-0.003c12.080 0 18.68-10 18.68-18.67 0-0.29-0.010-0.57-0.030-0.85 1.3-0.92 2.4-2.070 3.29-3.4z"></path>
</symbol>
<symbol id="icon-linkedin-white" viewBox="0 0 32 32">
<path  d="M32 32v-11.74c0-5.74-1.24-10.16-7.95-10.16-3.23 0-5.39 1.77-6.27 3.45h-0.1v-2.92h-6.36v21.37h6.63v-10.58c0-2.79 0.52-5.48 3.97-5.48 3.4 0 3.45 3.18 3.45 5.66v10.4h6.63zM0.53 10.64h6.63v21.36h-6.63v-21.36zM3.84 0c-2.12 0-3.84 1.72-3.84 3.84s1.72 3.88 3.84 3.88c2.134-0.011 3.86-1.744 3.86-3.88 0-0 0-0 0-0v0c-0.006-2.122-1.727-3.84-3.85-3.84-0.004 0-0.007 0-0.011 0h0.001z"></path>
</symbol>
<symbol id="icon-linkedin" viewBox="0 0 32 32">
<path  d="M32 32v-11.74c0-5.74-1.24-10.16-7.95-10.16-3.23 0-5.39 1.77-6.27 3.45h-0.1v-2.92h-6.36v21.37h6.63v-10.58c0-2.79 0.52-5.48 3.97-5.48 3.4 0 3.45 3.18 3.45 5.66v10.4h6.63zM0.53 10.64h6.63v21.36h-6.63v-21.36zM3.84 0c-2.12 0-3.84 1.72-3.84 3.84s1.72 3.88 3.84 3.88c2.134-0.011 3.86-1.744 3.86-3.88 0-0 0-0 0-0v0c-0.006-2.122-1.727-3.84-3.85-3.84-0.004 0-0.007 0-0.011 0h0.001z"></path>
</symbol>
<symbol id="icon-instagram-white" viewBox="0 0 32 32">
<path  d="M31.97 9.4c-0.028-1.397-0.297-2.723-0.767-3.95l0.027 0.080c-0.426-1.113-1.059-2.060-1.858-2.838l-0.002-0.002c-0.779-0.794-1.723-1.423-2.776-1.832l-0.054-0.018c-1.020-0.39-2.18-0.67-3.88-0.74-1.71-0.080-2.26-0.1-6.6-0.1s-4.89 0.020-6.6 0.1c-1.7 0.060-2.86 0.33-3.88 0.73-1.112 0.423-2.060 1.053-2.839 1.849l-0.001 0.001c-0.791 0.782-1.417 1.729-1.822 2.786l-0.018 0.054c-0.4 1.020-0.67 2.18-0.74 3.88-0.080 1.71-0.1 2.26-0.1 6.6s0.020 4.9 0.090 6.6c0.080 1.7 0.35 2.87 0.74 3.88 0.427 1.111 1.056 2.058 1.849 2.839l0.001 0.001c0.8 0.81 1.77 1.44 2.84 1.84 1.020 0.4 2.18 0.67 3.88 0.75 1.7 0.070 2.25 0.090 6.6 0.090s4.88-0.020 6.59-0.1c1.401-0.027 2.73-0.296 3.96-0.767l-0.080 0.027c2.156-0.849 3.831-2.524 4.661-4.625l0.019-0.055c0.4-1.020 0.67-2.18 0.75-3.88 0.070-1.7 0.090-2.25 0.090-6.6s0-4.89-0.080-6.6zM29.090 22.47c-0.011 1.069-0.212 2.089-0.57 3.030l0.020-0.060c-0.551 1.401-1.639 2.489-3.004 3.027l-0.036 0.013c-0.56 0.22-1.41 0.48-2.97 0.55-1.69 0.070-2.2 0.1-6.46 0.1s-4.79-0.020-6.47-0.1c-1.069-0.011-2.089-0.212-3.030-0.57l0.060 0.020c-0.722-0.271-1.337-0.68-1.839-1.199l-0.001-0.001c-0.514-0.502-0.92-1.113-1.179-1.796l-0.011-0.034c-0.337-0.881-0.538-1.9-0.55-2.965l-0-0.005c-0.070-1.69-0.1-2.2-0.1-6.47s0.030-4.78 0.1-6.46c0.070-1.56 0.33-2.4 0.55-2.97 0.26-0.7 0.66-1.32 1.2-1.84 0.505-0.515 1.119-0.921 1.806-1.179l0.034-0.011c0.878-0.336 1.894-0.537 2.954-0.55l0.006-0c1.69-0.070 2.2-0.1 6.46-0.1 4.28 0 4.78 0.030 6.47 0.1 1.56 0.070 2.4 0.33 2.96 0.55 0.7 0.26 1.33 0.66 1.84 1.2 0.53 0.51 0.94 1.14 1.2 1.83 0.22 0.57 0.48 1.42 0.55 2.97 0.070 1.69 0.1 2.2 0.1 6.46s-0.030 4.77-0.1 6.46z"></path>
<path  d="M16.060 7.78c-4.543 0-8.225 3.682-8.225 8.225s3.682 8.225 8.225 8.225v0c4.543 0 8.225-3.682 8.225-8.225s-3.682-8.225-8.225-8.225v0zM16.060 21.33c-2.944 0-5.33-2.386-5.33-5.33s2.386-5.33 5.33-5.33v0c2.946 0 5.335 2.389 5.335 5.335s-2.389 5.335-5.335 5.335v0zM26.52 7.46c0.003 0.041 0.005 0.090 0.005 0.138 0 1.060-0.86 1.92-1.92 1.92s-1.92-0.86-1.92-1.92c0-0.049 0.002-0.097 0.005-0.145l-0 0.006c0.074-0.999 0.903-1.782 1.915-1.782s1.841 0.782 1.915 1.775l0 0.006z"></path>
</symbol>
<symbol id="icon-instagram" viewBox="0 0 32 32">
<path  d="M31.97 9.4c-0.028-1.397-0.297-2.723-0.767-3.95l0.027 0.080c-0.426-1.113-1.059-2.060-1.858-2.838l-0.002-0.002c-0.779-0.794-1.723-1.423-2.776-1.832l-0.054-0.018c-1.020-0.39-2.18-0.67-3.88-0.74-1.71-0.080-2.26-0.1-6.6-0.1s-4.89 0.020-6.6 0.1c-1.7 0.060-2.86 0.33-3.88 0.73-1.112 0.423-2.060 1.053-2.839 1.849l-0.001 0.001c-0.791 0.782-1.417 1.729-1.822 2.786l-0.018 0.054c-0.4 1.020-0.67 2.18-0.74 3.88-0.080 1.71-0.1 2.26-0.1 6.6s0.020 4.9 0.090 6.6c0.080 1.7 0.35 2.87 0.74 3.88 0.427 1.111 1.056 2.058 1.849 2.839l0.001 0.001c0.8 0.81 1.77 1.44 2.84 1.84 1.020 0.4 2.18 0.67 3.88 0.75 1.7 0.070 2.25 0.090 6.6 0.090s4.88-0.020 6.59-0.1c1.401-0.027 2.73-0.296 3.96-0.767l-0.080 0.027c2.156-0.849 3.831-2.524 4.661-4.625l0.019-0.055c0.4-1.020 0.67-2.18 0.75-3.88 0.070-1.7 0.090-2.25 0.090-6.6s0-4.89-0.080-6.6zM29.090 22.47c-0.011 1.069-0.212 2.089-0.57 3.030l0.020-0.060c-0.551 1.401-1.639 2.489-3.004 3.027l-0.036 0.013c-0.56 0.22-1.41 0.48-2.97 0.55-1.69 0.070-2.2 0.1-6.46 0.1s-4.79-0.020-6.47-0.1c-1.069-0.011-2.089-0.212-3.030-0.57l0.060 0.020c-0.722-0.271-1.337-0.68-1.839-1.199l-0.001-0.001c-0.514-0.502-0.92-1.113-1.179-1.796l-0.011-0.034c-0.337-0.881-0.538-1.9-0.55-2.965l-0-0.005c-0.070-1.69-0.1-2.2-0.1-6.47s0.030-4.78 0.1-6.46c0.070-1.56 0.33-2.4 0.55-2.97 0.26-0.7 0.66-1.32 1.2-1.84 0.505-0.515 1.119-0.921 1.806-1.179l0.034-0.011c0.878-0.336 1.894-0.537 2.954-0.55l0.006-0c1.69-0.070 2.2-0.1 6.46-0.1 4.28 0 4.78 0.030 6.47 0.1 1.56 0.070 2.4 0.33 2.96 0.55 0.7 0.26 1.33 0.66 1.84 1.2 0.53 0.51 0.94 1.14 1.2 1.83 0.22 0.57 0.48 1.42 0.55 2.97 0.070 1.69 0.1 2.2 0.1 6.46s-0.030 4.77-0.1 6.46z"></path>
<path  d="M16.060 7.78c-4.543 0-8.225 3.682-8.225 8.225s3.682 8.225 8.225 8.225v0c4.543 0 8.225-3.682 8.225-8.225s-3.682-8.225-8.225-8.225v0zM16.060 21.33c-2.944 0-5.33-2.386-5.33-5.33s2.386-5.33 5.33-5.33v0c2.946 0 5.335 2.389 5.335 5.335s-2.389 5.335-5.335 5.335v0zM26.52 7.46c0.003 0.041 0.005 0.090 0.005 0.138 0 1.060-0.86 1.92-1.92 1.92s-1.92-0.86-1.92-1.92c0-0.049 0.002-0.097 0.005-0.145l-0 0.006c0.074-0.999 0.903-1.782 1.915-1.782s1.841 0.782 1.915 1.775l0 0.006z"></path>
</symbol>
<symbol id="icon-facebook-white" viewBox="0 0 32 32">
<path  d="M21.33 5.31h2.92v-5.080c-0.5-0.080-2.24-0.23-4.26-0.23-4.2 0-7.1 2.65-7.1 7.52v4.48h-4.63v5.69h4.65v14.31h5.7v-14.31h4.46l0.7-5.69h-5.17v-3.92c0-1.64 0.45-2.77 2.74-2.77z"></path>
</symbol>
<symbol id="icon-facebook" viewBox="0 0 32 32">
<path  d="M21.33 5.31h2.92v-5.080c-0.5-0.080-2.24-0.23-4.26-0.23-4.2 0-7.1 2.65-7.1 7.52v4.48h-4.63v5.69h4.65v14.31h5.7v-14.31h4.46l0.7-5.69h-5.17v-3.92c0-1.64 0.45-2.77 2.74-2.77z"></path>
</symbol>
<symbol id="icon-diagram" viewBox="0 0 32 32">
<path fill="#2196f3" style="fill: var(--color4, #2196f3)" d="M14.93 14.96h1.060v4.8h-1.060v-4.8zM19.19 17.1h1.070v2.66h-1.070v-2.66zM10.66 18.7h1.070v1.060h-1.070v-1.060zM7.46 18.16h1.070v1.6h-1.070v-1.6z"></path>
<path fill="#212121" style="fill: var(--color5, #212121)" d="M1.6 28.3h25.59c0.88 0 1.6-0.73 1.6-1.6v-2.14c0-0.88-0.72-1.6-1.6-1.6h-0.54v-13.3l3.030-2.86c0.204 0.101 0.444 0.161 0.699 0.161 0.884 0 1.6-0.716 1.6-1.6s-0.716-1.6-1.6-1.6c-0.884 0-1.6 0.716-1.6 1.6 0 0.247 0.056 0.48 0.156 0.689l-0.004-0.010-2.28 2.16v-1.23c0-0.88-0.71-1.6-1.6-1.6h-21.32c-0.88 0-1.6 0.72-1.6 1.6v16h-0.53c-0.88 0-1.6 0.7-1.6 1.6v2.12c0 0.89 0.72 1.6 1.6 1.6zM30.38 4.83c0.293 0 0.53 0.237 0.53 0.53s-0.237 0.53-0.53 0.53v0c-0.293 0-0.53-0.237-0.53-0.53s0.237-0.53 0.53-0.53v0zM3.2 6.97c0-0.3 0.24-0.53 0.53-0.53h21.32c0.3 0 0.54 0.23 0.54 0.53v2.23l-1.070 1.010v-2.18c0-0.29-0.24-0.53-0.53-0.53h-19.2c-0.29 0-0.53 0.24-0.53 0.53v13.33c0 0.3 0.24 0.53 0.54 0.53h19.19c0.3 0 0.53-0.23 0.53-0.53v-9.66l1.070-1.010v12.28h-22.4v-16zM8 13.9c-0.004-0-0.008-0-0.012-0-0.884 0-1.6 0.716-1.6 1.6s0.716 1.6 1.6 1.6c0.432 0 0.825-0.172 1.113-0.45l-0 0 1.86 0.93c0.21 0.1 0.47 0.060 0.63-0.12l3.94-4.44 3.87 2.9c0.21 0.16 0.5 0.14 0.69-0.030l3.36-3.2v8.14h-18.12v-12.26h18.12v2.66l-3.77 3.57-3.9-2.93c-0.087-0.066-0.198-0.105-0.317-0.105-0.161 0-0.305 0.072-0.402 0.185l-0.001 0.001-4 4.49-1.49-0.75c0.020-0.060 0.020-0.13 0.020-0.19 0-0.88-0.71-1.6-1.6-1.6zM8.53 15.5c0 0.295-0.24 0.535-0.535 0.535s-0.535-0.24-0.535-0.535v0c0-0.295 0.24-0.535 0.535-0.535s0.535 0.24 0.535 0.535v0zM11.73 24.030h5.33v0.53c0 0.3-0.24 0.53-0.53 0.53h-4.27c-0.293 0-0.53-0.237-0.53-0.53v0-0.53zM1.070 24.56c0-0.3 0.24-0.53 0.53-0.53h9.060v0.53c0 0.88 0.72 1.6 1.6 1.6h4.26c0.89 0 1.6-0.72 1.6-1.6v-0.53h9.060c0.3 0 0.54 0.24 0.54 0.53v2.13c0 0.3-0.24 0.53-0.53 0.53h-25.6c-0.288-0.006-0.52-0.241-0.52-0.53 0-0 0-0 0-0v0-2.13z"></path>
</symbol>
<symbol id="icon-clock" viewBox="0 0 32 32">
<path fill="#212121" style="fill: var(--color5, #212121)" d="M31.3 15.3c-0.004-8.447-6.852-15.293-15.3-15.293-8.45 0-15.3 6.85-15.3 15.3 0 6.785 4.417 12.539 10.532 14.542l0.108 0.031 0.18 0.030c0.12 0 0.24-0.030 0.35-0.1 0.13-0.070 0.23-0.2 0.28-0.35l3.85-12.25c1.051-0.005 1.9-0.858 1.9-1.91 0-1.055-0.855-1.91-1.91-1.91-0.302 0-0.588 0.070-0.842 0.195l0.011-0.005-5.1-5.1c-0.109-0.088-0.249-0.142-0.402-0.142-0.353 0-0.64 0.287-0.64 0.64 0 0.153 0.054 0.293 0.143 0.403l-0.001-0.001 5.1 5.1c-0.4 0.8-0.17 1.77 0.53 2.31l-3.68 11.67c-5.408-2.034-9.185-7.163-9.185-13.174 0-7.754 6.286-14.040 14.040-14.040s14.040 6.286 14.040 14.040c0 5.684-3.378 10.58-8.236 12.788l-0.088 0.036-0.4-1.87c-0.068-0.285-0.321-0.494-0.623-0.494-0.16 0-0.306 0.058-0.418 0.155l0.001-0.001-3.84 3.42c-0.133 0.118-0.217 0.289-0.217 0.48 0 0.284 0.185 0.525 0.442 0.609l0.005 0.001 4.9 1.56c0.058 0.019 0.124 0.030 0.193 0.030 0.353 0 0.64-0.287 0.64-0.64 0-0.046-0.005-0.091-0.014-0.134l0.001 0.004-0.4-1.84c5.539-2.371 9.35-7.775 9.35-14.069 0-0.007 0-0.015 0-0.022v0.001zM16 14.66c0.353 0 0.64 0.287 0.64 0.64s-0.287 0.64-0.64 0.64v0c-0.353 0-0.64-0.287-0.64-0.64s0.287-0.64 0.64-0.64v0zM18.1 29.53l2.18-1.95 0.6 2.84-2.79-0.9z"></path>
<path fill="#2196f3" style="fill: var(--color4, #2196f3)" d="M15.35 3.19v1.27c0 0.353 0.287 0.64 0.64 0.64s0.64-0.287 0.64-0.64v-1.27c0-0.353-0.287-0.64-0.64-0.64s-0.64 0.287-0.64 0.64v0zM3.88 14.66c-0.353 0-0.64 0.287-0.64 0.64s0.287 0.64 0.64 0.64h1.27c0.353 0 0.64-0.287 0.64-0.64s-0.287-0.64-0.64-0.64h-1.27zM28.1 15.94c0.353 0 0.64-0.287 0.64-0.64s-0.287-0.64-0.64-0.64h-1.27c-0.353 0-0.64 0.287-0.64 0.64s0.287 0.64 0.64 0.64h1.28z"></path>
</symbol>
<symbol id="icon-client-two" viewBox="0 0 57 32">
<path  d="M26.725 3.163h-0.069l-0.336-0.011h-0.245c-0.015-0-0.034-0-0.052-0-0.226 0-0.45 0.006-0.672 0.017l0.031-0.001c-1.941 0.107-3.84 0.597-5.605 1.429l-0.229 0.112v11.808l0.539-0.181c1.729-0.623 3.724-0.994 5.802-1.019l0.011-0v1.552l-0.565 0.016h-0.043c-2.689 0.149-5.175 0.892-7.369 2.098l0.089-0.045v-15.152c1.196-0.71 2.58-1.288 4.045-1.662l0.11-0.024c1.172-0.314 2.518-0.497 3.907-0.501h0.232c0.973 0.003 1.916 0.129 2.814 0.364l-0.078-0.017v1.531c-0.544-0.134-1.188-0.236-1.848-0.286l-0.040-0.002h-0.037c-0.133-0.011-0.267-0.027-0.389-0.027zM29.413 4.725c0.301 0.019 0.653 0.030 1.008 0.030 1.474 0 2.904-0.19 4.266-0.547l-0.117 0.026c1.503-0.383 2.82-0.911 4.045-1.586l-0.087 0.044v14.875c-1.196 0.711-2.579 1.291-4.044 1.667l-0.11 0.024c-1.28 0.325-2.592 0.496-3.909 0.501-0.027 0-0.059 0-0.091 0-1.023 0-2.015-0.128-2.963-0.37l0.083 0.018v-14.971c0.553 0.135 1.209 0.238 1.881 0.286l0.039 0.002zM36.987 4.843l-0.539 0.181c-1.791 0.645-3.858 1.017-6.011 1.017-0.337 0-0.673-0.009-1.006-0.027l0.046 0.002-0.437-0.027v12.144l0.373 0.032c0.309 0.024 0.669 0.037 1.031 0.037 1.263 0 2.488-0.163 3.655-0.47l-0.1 0.022c1.056-0.271 1.972-0.612 2.84-1.036l-0.088 0.039 0.235-0.107v-11.808z"></path>
<path  d="M19.061 24.112c-0.145-0.148-0.348-0.241-0.572-0.241-0.011 0-0.022 0-0.032 0.001l0.002-0c-0.117 0-0.235 0.021-0.347 0.064-0.3 0.12-0.508 0.408-0.508 0.745 0 0.014 0 0.028 0.001 0.041l-0-0.002v2.027c0 0.139 0.021 0.283 0.080 0.411 0.053 0.107 0.117 0.197 0.203 0.272 0.080 0.069 0.176 0.117 0.277 0.144s0.203 0.043 0.304 0.043c0.464-0.009 0.837-0.388 0.837-0.853 0-0 0-0 0-0v0-0.224h-0.533v0.176c0.005 0.064 0 0.128-0.027 0.181-0.017 0.046-0.042 0.085-0.075 0.117v0c-0.060 0.046-0.136 0.073-0.218 0.075h-0c-0.011 0.002-0.023 0.002-0.036 0.002-0.088 0-0.166-0.043-0.215-0.108l-0-0.001c-0.047-0.073-0.075-0.162-0.075-0.257 0-0.005 0-0.010 0-0.015l-0 0.001v-1.888c0-0.107 0.021-0.208 0.069-0.299 0.048-0.075 0.131-0.124 0.226-0.124 0.011 0 0.021 0.001 0.032 0.002l-0.001-0c0.003-0 0.006-0 0.009-0 0.092 0 0.173 0.044 0.225 0.111l0 0.001c0.057 0.072 0.091 0.163 0.091 0.263 0 0.001 0 0.003-0 0.004v-0 0.181h0.523v-0.208c0-0.002 0-0.005 0-0.007 0-0.243-0.091-0.465-0.241-0.634l0.001 0.001zM22.203 24.091c-0.162-0.136-0.374-0.219-0.604-0.219-0.112 0-0.22 0.020-0.32 0.055l0.007-0.002c-0.107 0.037-0.197 0.091-0.277 0.16-0.091 0.085-0.16 0.181-0.208 0.288-0.053 0.123-0.080 0.256-0.075 0.395v1.936c-0.005 0.139 0.021 0.272 0.075 0.4 0.048 0.107 0.117 0.197 0.208 0.267 0.080 0.080 0.171 0.139 0.277 0.176 0.094 0.035 0.202 0.055 0.315 0.055s0.221-0.020 0.321-0.057l-0.006 0.002c0.329-0.114 0.562-0.421 0.562-0.783 0-0.019-0.001-0.038-0.002-0.057l0 0.003v-1.941c0.001-0.011 0.001-0.024 0.001-0.038 0-0.252-0.107-0.48-0.278-0.639l-0-0zM21.957 26.704c0.001 0.009 0.001 0.019 0.001 0.029 0 0.1-0.041 0.189-0.108 0.253l-0 0c-0.067 0.055-0.153 0.089-0.248 0.089s-0.181-0.034-0.249-0.090l0.001 0c-0.067-0.063-0.108-0.153-0.108-0.252 0-0.011 0-0.022 0.002-0.033l-0 0.001v-1.936c-0.001-0.009-0.001-0.020-0.001-0.031 0-0.099 0.041-0.188 0.108-0.251l0-0c0.067-0.055 0.153-0.089 0.248-0.089s0.181 0.034 0.249 0.090l-0.001-0c0.067 0.063 0.108 0.153 0.108 0.252 0 0.011-0 0.022-0.002 0.033l0-0.001v1.936zM26.331 27.573v-3.68h-0.512l-0.667 1.947h-0.011l-0.672-1.947h-0.501v3.675h0.523v-2.24h0.011l0.512 1.584h0.267l0.517-1.579h0.005v2.235h0.528zM29.312 24.16c-0.080-0.096-0.181-0.16-0.299-0.203-0.109-0.037-0.234-0.059-0.365-0.059-0.005 0-0.010 0-0.015 0h-0.778v3.675h0.523v-1.44h0.267c0.165 0.011 0.325-0.021 0.475-0.096 0.212-0.132 0.361-0.347 0.405-0.597l0.001-0.005c0.021-0.124 0.032-0.266 0.032-0.411 0-0.187-0.020-0.369-0.057-0.545l0.003 0.017c-0.036-0.134-0.103-0.249-0.192-0.342l0 0zM29.045 25.28c-0.005 0.064-0.021 0.128-0.053 0.187-0.032 0.053-0.075 0.107-0.133 0.128-0.068 0.034-0.148 0.053-0.233 0.053-0.004 0-0.009-0-0.013-0h-0.239v-1.253h0.267c0.085 0 0.16 0.011 0.24 0.048 0.053 0.027 0.096 0.075 0.123 0.133 0.026 0.060 0.042 0.129 0.043 0.202v0.502zM31.787 23.899h-0.427l-0.8 3.675h0.523l0.155-0.789h0.709l0.16 0.789h0.517l-0.827-3.675zM31.307 26.283l0.261-1.333h0.005l0.256 1.333h-0.523zM35.173 26.112h-0.011l-0.789-2.213h-0.501v3.675h0.523v-2.208h0.011l0.795 2.208h0.491v-3.68h-0.523v2.213zM38.373 23.899l-0.427 1.461h-0.005l-0.427-1.461h-0.549l0.72 2.123v1.547h0.523v-1.547l0.72-2.123h-0.555zM17.6 28.608h0.251v0.709h0.171v-0.709h0.251v-0.144h-0.672v0.144zM19.723 28.464l-0.331 0.853h0.181l0.069-0.192h0.341l0.069 0.192h0.187l-0.336-0.853h-0.181zM19.696 28.981l0.112-0.32 0.117 0.32h-0.229zM21.813 29.003h0.203v0.107c-0.055 0.046-0.125 0.073-0.202 0.075h-0c-0.004 0-0.009 0-0.014 0-0.067 0-0.128-0.031-0.167-0.080l-0-0c-0.040-0.057-0.065-0.128-0.065-0.205 0-0.007 0-0.013 0.001-0.020l-0 0.001c0-0.187 0.080-0.283 0.245-0.283 0.005-0 0.011-0.001 0.017-0.001 0.083 0 0.154 0.056 0.175 0.133l0 0.001 0.171-0.032c-0.037-0.165-0.16-0.251-0.363-0.251-0.005-0-0.010-0-0.016-0-0.109 0-0.208 0.041-0.283 0.107l0-0c-0.077 0.076-0.124 0.18-0.124 0.296 0 0.012 0 0.024 0.002 0.036l-0-0.002c0 0.117 0.032 0.235 0.107 0.32 0.076 0.079 0.183 0.129 0.301 0.129 0.009 0 0.017-0 0.026-0.001l-0.001 0c0.133 0 0.267-0.048 0.363-0.139v-0.336h-0.373v0.144zM23.957 28.464h-0.171v0.853h0.597v-0.144h-0.427v-0.709zM25.771 28.464h-0.176v0.853h0.176v-0.853zM27.541 29.035l-0.352-0.571h-0.165v0.853h0.16v-0.555l0.341 0.555h0.171v-0.853h-0.16v0.571zM29.141 28.944h0.427v-0.144h-0.427v-0.192h0.453v-0.144h-0.629v0.853h0.651v-0.144h-0.48v-0.229zM33.019 28.8h-0.336v-0.336h-0.171v0.853h0.171v-0.373h0.336v0.373h0.171v-0.853h-0.171v0.336zM34.629 28.944h0.427v-0.144h-0.427v-0.192h0.459v-0.144h-0.629v0.853h0.645v-0.144h-0.475v-0.229zM36.811 28.944c0.149-0.027 0.224-0.107 0.224-0.24 0.001-0.007 0.001-0.016 0.001-0.024 0-0.066-0.032-0.125-0.081-0.162l-0.001-0c-0.064-0.034-0.141-0.054-0.222-0.054-0.010 0-0.020 0-0.030 0.001l0.001-0h-0.363v0.853h0.171v-0.357h0.032c0.037 0 0.075 0.005 0.107 0.021 0.027 0.016 0.053 0.037 0.064 0.064l0.187 0.267h0.203l-0.107-0.16c-0.043-0.085-0.107-0.16-0.187-0.213zM36.64 28.827h-0.128v-0.213h0.133c0.059-0.005 0.123 0 0.176 0.016 0.027 0.020 0.044 0.051 0.044 0.086 0 0.038-0.019 0.071-0.049 0.090l-0 0c-0.043 0.014-0.093 0.022-0.145 0.022-0.011 0-0.021-0-0.032-0.001l0.001 0zM38.459 28.944h0.427v-0.144h-0.427v-0.192h0.459v-0.144h-0.629v0.853h0.645v-0.144h-0.475v-0.229z"></path>
</symbol>
<symbol id="icon-client-three" viewBox="0 0 57 32">
<path d="M19.413 26.187l0.027 0.005 0.021 0.011 0.117 0.112c-0.091 0.091-0.203 0.16-0.325 0.213-0.149 0.053-0.309 0.080-0.464 0.075-0.149 0-0.299-0.021-0.437-0.069-0.246-0.085-0.439-0.268-0.537-0.501l-0.002-0.006c-0.050-0.117-0.080-0.254-0.080-0.397s0.029-0.28 0.082-0.404l-0.003 0.007c0.053-0.112 0.128-0.219 0.229-0.309 0.096-0.085 0.213-0.155 0.347-0.197 0.134-0.048 0.289-0.076 0.451-0.076 0.15 0 0.294 0.024 0.428 0.068l-0.010-0.003c0.112 0.043 0.219 0.107 0.309 0.181l-0.096 0.117c-0.007 0.009-0.016 0.016-0.026 0.021l-0 0c-0.010 0.007-0.023 0.011-0.037 0.011-0 0-0 0-0 0h0c-0.016-0.002-0.031-0.008-0.043-0.016l0 0-0.053-0.032-0.069-0.037c-0.107-0.054-0.234-0.086-0.368-0.086-0.013 0-0.026 0-0.040 0.001l0.002-0c-0.107 0-0.219 0.016-0.32 0.053-0.19 0.065-0.339 0.206-0.414 0.385l-0.002 0.005c-0.040 0.091-0.063 0.197-0.064 0.309v0c0 0.107 0.021 0.219 0.059 0.32 0.073 0.181 0.219 0.32 0.401 0.383l0.005 0.001c0.096 0.032 0.197 0.053 0.299 0.053l0.176-0.011c0.148-0.016 0.28-0.076 0.385-0.166l-0.001 0.001c0.014-0.012 0.033-0.020 0.053-0.021h0zM22.773 25.627c0 0.139-0.021 0.267-0.075 0.395-0.053 0.112-0.123 0.213-0.219 0.304-0.101 0.091-0.213 0.16-0.347 0.203-0.283 0.096-0.597 0.096-0.885 0-0.132-0.047-0.245-0.116-0.342-0.203l0.001 0.001c-0.092-0.085-0.166-0.188-0.216-0.304l-0.002-0.006c-0.107-0.251-0.107-0.533 0-0.784 0.053-0.117 0.123-0.219 0.219-0.309 0.101-0.085 0.213-0.149 0.341-0.197 0.132-0.046 0.284-0.072 0.443-0.072s0.311 0.026 0.452 0.075l-0.010-0.003c0.128 0.048 0.245 0.117 0.347 0.203 0.181 0.166 0.294 0.404 0.294 0.668 0 0.011-0 0.021-0.001 0.032l0-0.002zM22.469 25.627c0-0.107-0.016-0.213-0.053-0.315-0.071-0.181-0.215-0.32-0.395-0.383l-0.005-0.001c-0.096-0.032-0.206-0.051-0.32-0.051s-0.224 0.019-0.327 0.053l0.007-0.002c-0.097 0.033-0.181 0.084-0.251 0.15l0-0c-0.069 0.064-0.123 0.142-0.158 0.23l-0.002 0.004c-0.069 0.208-0.069 0.427 0 0.635 0.071 0.183 0.218 0.323 0.401 0.383l0.005 0.001c0.208 0.064 0.437 0.064 0.64 0 0.096-0.037 0.181-0.085 0.251-0.149 0.069-0.069 0.123-0.149 0.155-0.235 0.037-0.107 0.053-0.213 0.053-0.32zM25.067 25.957l0.032 0.075 0.032-0.075 0.037-0.069 0.747-1.173c0.011-0.016 0.027-0.032 0.037-0.032 0.019-0.007 0.041-0.011 0.064-0.011v0h0.219v1.909h-0.261v-1.525l-0.747 1.189c-0.010 0.018-0.025 0.033-0.042 0.042l-0.001 0c-0.018 0.010-0.040 0.016-0.063 0.016-0 0-0 0-0.001 0h-0.043c-0.001 0-0.001 0-0.002 0-0.023 0-0.044-0.006-0.063-0.016l0.001 0c-0.018-0.010-0.033-0.025-0.042-0.042l-0-0.001-0.768-1.2v1.536h-0.256v-1.909h0.224c0.016 0 0.037 0 0.059 0.011 0.016 0.005 0.032 0.016 0.043 0.032l0.757 1.173 0.037 0.069zM27.861 25.867v0.715h-0.288v-1.909h0.645c0.123 0 0.245 0.016 0.363 0.043 0.096 0.021 0.181 0.064 0.256 0.117 0.064 0.053 0.117 0.117 0.149 0.187 0.032 0.080 0.053 0.16 0.048 0.245 0 0.002 0 0.003 0 0.005 0 0.174-0.083 0.328-0.212 0.426l-0.001 0.001c-0.075 0.059-0.16 0.107-0.256 0.128-0.102 0.030-0.219 0.048-0.34 0.048-0.004 0-0.008-0-0.013-0h0.001l-0.352-0.005zM27.861 25.659h0.352c0.080 0 0.155-0.005 0.229-0.027 0.061-0.020 0.115-0.049 0.161-0.086l-0.001 0.001c0.082-0.068 0.133-0.17 0.133-0.284 0-0.002 0-0.003-0-0.005v0c0-0.006 0.001-0.013 0.001-0.020 0-0.047-0.010-0.091-0.028-0.131l0.001 0.002c-0.026-0.053-0.062-0.098-0.106-0.133l-0.001-0.001c-0.107-0.075-0.245-0.107-0.389-0.101h-0.352v0.784zM31.771 26.581h-0.229c-0.002 0-0.005 0-0.007 0-0.021 0-0.041-0.006-0.057-0.017l0 0c-0.016-0.011-0.028-0.025-0.037-0.042l-0-0.001-0.197-0.464h-0.992l-0.208 0.464c-0.017 0.038-0.054 0.064-0.098 0.064-0.003 0-0.006-0-0.009-0l0 0h-0.224l0.875-1.915h0.304l0.88 1.909zM30.331 25.872h0.821l-0.347-0.773c-0.023-0.050-0.045-0.11-0.062-0.172l-0.002-0.009-0.032 0.101-0.032 0.080-0.347 0.773zM33.029 24.683l0.043 0.032 1.275 1.44v-1.483h0.256v1.909h-0.144c-0.021 0-0.043 0-0.059-0.011-0.019-0.010-0.035-0.022-0.048-0.037l-0-0-1.269-1.44v1.488h-0.261v-1.909h0.16c0.011 0 0.032 0 0.048 0.011zM36.747 25.824v0.757h-0.288v-0.757l-0.805-1.152h0.261c0.002-0 0.005-0 0.007-0 0.021 0 0.041 0.006 0.057 0.017l-0-0 0.037 0.043 0.501 0.747c0.032 0.047 0.062 0.101 0.088 0.158l0.003 0.007 0.037-0.080 0.053-0.085 0.491-0.747c0.011-0.016 0.023-0.030 0.037-0.042l0-0c0.016-0.013 0.037-0.021 0.060-0.021 0.001 0 0.002 0 0.004 0h0.266l-0.811 1.157zM24.923 21.472l0.384 0.032c1.947-0.747 3.565-1.984 4.754-3.562l0.020-0.027c1.060-1.413 1.697-3.195 1.697-5.127 0-0.054-0-0.107-0.001-0.161l0 0.008-2.165-1.877c0.443 1.989 0.235 4.043-0.592 5.936-0.907 1.983-2.311 3.605-4.054 4.753l-0.042 0.026z"></path>
<path  d="M24.149 21.387l0.059 0.005c1.973-1.227 3.483-2.939 4.32-4.923 0.478-1.079 0.756-2.337 0.756-3.66 0-0.898-0.128-1.765-0.367-2.586l0.016 0.065-3.083-2.672c0.96 1.642 1.527 3.616 1.527 5.722 0 0.483-0.030 0.959-0.088 1.427l0.006-0.056c-0.351 2.604-1.485 4.894-3.153 6.679l0.006-0.007zM34.597 14.843c-0.599 2.176-1.882 3.994-3.6 5.256l-0.027 0.019c-0.533 0.405-1.109 0.763-1.717 1.072 1.488-0.379 2.859-1.051 4-1.963 1.103-0.874 1.982-1.982 2.569-3.252l0.023-0.055-1.248-1.077z"></path>
<path  d="M34.107 14.539l-1.781-1.547c-0.047 1.877-0.666 3.6-1.687 5.013l0.018-0.026c-1.113 1.534-2.58 2.746-4.284 3.529l-0.068 0.028h0.011c0.4 0 0.8-0.021 1.195-0.059 1.692-0.597 3.134-1.537 4.301-2.744l0.003-0.003c1.093-1.13 1.895-2.549 2.281-4.13l0.013-0.062zM24.411 6.485l-2.123-1.845c-1.894 0.624-3.485 1.738-4.674 3.193l-0.014 0.018c-1.089 1.342-1.754 3.066-1.771 4.946l-0 0.004c0.028 2.083 0.84 3.971 2.154 5.386l-0.005-0.005c1.429 1.538 3.31 2.637 5.431 3.087l0.068 0.012c1.84-1.897 3.041-4.423 3.251-7.225l0.002-0.039c0.012-0.192 0.018-0.416 0.018-0.642 0-2.604-0.88-5.003-2.358-6.915l0.019 0.026zM39.008 14.256c-0.005-2.32-1.067-4.533-2.955-6.176-1.884-1.596-4.342-2.566-7.027-2.566-0.027 0-0.054 0-0.081 0l0.004-0c-1.232 0-2.453 0.197-3.605 0.587l12.992 11.28c0.423-0.919 0.67-1.993 0.672-3.125v-0.001z"></path>
</symbol>
<symbol id="icon-client-six" viewBox="0 0 57 32">
<path  d="M28.491 14.613c-0.202-0.262-0.323-0.594-0.323-0.955 0-0.035 0.001-0.071 0.003-0.105l-0 0.005v-1.536c0-0.475 0.107-0.832 0.32-1.077s0.587-0.368 1.104-0.363c0.485 0 0.837 0.107 1.040 0.309 0.224 0.267 0.331 0.592 0.309 0.923v0.357h-0.875v-0.363c0-0.123-0.005-0.24-0.027-0.357-0.014-0.086-0.059-0.161-0.122-0.213l-0.001-0c-0.079-0.054-0.178-0.087-0.283-0.087-0.013 0-0.026 0-0.038 0.001l0.002-0c-0.009-0.001-0.021-0.001-0.032-0.001-0.112 0-0.215 0.034-0.301 0.093l0.002-0.001c-0.074 0.058-0.127 0.139-0.149 0.232l-0.001 0.003c-0.021 0.123-0.032 0.251-0.032 0.373v1.867c-0.016 0.187 0.027 0.363 0.112 0.528 0.043 0.053 0.107 0.101 0.176 0.128 0.050 0.019 0.107 0.030 0.167 0.030 0.020 0 0.040-0.001 0.059-0.004l-0.002 0c0.012 0.001 0.027 0.002 0.041 0.002 0.1 0 0.193-0.031 0.27-0.083l-0.002 0.001c0.069-0.056 0.118-0.136 0.133-0.227l0-0.002c0.016-0.123 0.027-0.251 0.027-0.373v-0.384h0.875v0.347c0.021 0.341-0.085 0.683-0.304 0.965-0.203 0.229-0.544 0.341-1.045 0.341-0.507 0-0.885-0.123-1.104-0.373zM32.139 14.635c-0.224-0.24-0.331-0.587-0.331-1.051v-1.616c0-0.459 0.107-0.8 0.331-1.040 0.219-0.235 0.587-0.352 1.109-0.347 0.512 0 0.88 0.112 1.099 0.347 0.224 0.235 0.336 0.581 0.336 1.040v1.616c0 0.459-0.112 0.805-0.336 1.045-0.224 0.245-0.587 0.363-1.099 0.363s-0.891-0.123-1.109-0.357zM33.653 14.245c0.080-0.149 0.117-0.315 0.107-0.48v-1.979c0.011-0.16-0.027-0.32-0.107-0.469-0.046-0.057-0.105-0.101-0.173-0.127l-0.003-0.001c-0.050-0.019-0.108-0.031-0.168-0.031-0.021 0-0.043 0.001-0.063 0.004l0.002-0c-0.019-0.003-0.041-0.004-0.064-0.004-0.061 0-0.12 0.011-0.174 0.032l0.003-0.001c-0.073 0.027-0.134 0.071-0.181 0.127l-0.001 0.001c-0.075 0.144-0.112 0.309-0.107 0.469v1.989c-0.005 0.16 0.027 0.331 0.107 0.48 0.109 0.098 0.254 0.158 0.413 0.158 0.080 0 0.156-0.015 0.226-0.042l-0.004 0.001c0.075-0.027 0.133-0.069 0.187-0.117v-0.011zM35.733 10.624h0.944l0.709 2.987 0.725-2.987h0.917l0.091 4.309h-0.677l-0.075-2.992-0.693 2.992h-0.555l-0.725-3.003-0.064 3.003h-0.688l0.085-4.309zM40.176 10.624h1.467c0.848 0 1.269 0.411 1.269 1.227 0 0.779-0.443 1.173-1.333 1.173h-0.501v1.909h-0.907l0.005-4.309zM41.429 12.469c0.091 0.005 0.181 0 0.267-0.021 0.085-0.027 0.165-0.064 0.235-0.117 0.101-0.144 0.149-0.32 0.128-0.485 0-0.133-0.011-0.267-0.043-0.389-0.015-0.048-0.038-0.089-0.070-0.123l0 0c-0.031-0.035-0.068-0.063-0.11-0.084l-0.002-0.001c-0.128-0.053-0.267-0.075-0.405-0.069h-0.352v1.291h0.352zM44.213 10.624h0.976l1.003 4.309h-0.848l-0.197-0.992h-0.869l-0.203 0.992h-0.853l0.997-4.309zM45.051 13.44l-0.341-1.808-0.336 1.813h0.677zM46.997 10.624h0.635l1.211 2.459v-2.453h0.757v4.304h-0.603l-1.221-2.56v2.56h-0.779v-4.309zM51.36 13.291l-1.013-2.661h0.853l0.613 1.707 0.576-1.707h0.832l-0.992 2.667v1.637h-0.875v-1.643zM29.893 16.816v0.224h-0.741v1.755h-0.309v-1.755h-0.747v-0.224h1.797zM32.213 18.795h-0.245c-0.024 0-0.046-0.008-0.064-0.022l0 0c-0.018-0.010-0.033-0.025-0.042-0.042l-0-0.001-0.213-0.469h-1.024l-0.213 0.469c-0.006 0.021-0.018 0.039-0.032 0.053v0c-0.016 0.010-0.036 0.017-0.057 0.017-0.004 0-0.008-0-0.013-0.001l0 0h-0.24l0.907-1.973h0.32l0.912 1.968zM30.709 18.059h0.853l-0.363-0.8c-0.023-0.052-0.044-0.116-0.062-0.182l-0.002-0.010-0.037 0.107-0.032 0.085-0.357 0.8zM33.771 18.597h0.171c0.101-0.005 0.196-0.024 0.285-0.055l-0.007 0.002 0.117-0.053v-0.443h-0.357c-0.002 0-0.004 0-0.007 0-0.018 0-0.034-0.006-0.047-0.016l0 0c-0.004-0.004-0.008-0.010-0.011-0.016l-0-0-0.005-0.021v-0.149h0.704v0.757c-0.174 0.108-0.381 0.179-0.603 0.197l-0.005 0c-0.091 0.011-0.176 0.016-0.267 0.016-0.16 0-0.309-0.027-0.459-0.075-0.14-0.049-0.26-0.12-0.364-0.209l0.001 0.001c-0.095-0.085-0.172-0.188-0.227-0.303l-0.002-0.006c-0.059-0.133-0.085-0.272-0.085-0.411-0-0.010-0.001-0.022-0.001-0.034 0-0.277 0.124-0.524 0.319-0.691l0.001-0.001c0.096-0.091 0.224-0.16 0.357-0.208 0.142-0.048 0.305-0.076 0.475-0.076 0.092 0 0.183 0.008 0.271 0.024l-0.009-0.001c0.149 0.021 0.284 0.066 0.407 0.131l-0.007-0.003c0.053 0.027 0.107 0.064 0.16 0.101l-0.091 0.123c-0.008 0.012-0.019 0.021-0.032 0.026l-0 0c-0.011 0.006-0.024 0.010-0.037 0.011h-0c-0.020-0.001-0.038-0.007-0.054-0.016l0.001 0c-0.032-0.011-0.059-0.027-0.091-0.048-0.144-0.071-0.313-0.112-0.492-0.112-0.009 0-0.017 0-0.026 0l0.001-0c-0.005-0-0.012-0-0.018-0-0.119 0-0.234 0.020-0.341 0.056l0.008-0.002c-0.107 0.037-0.192 0.091-0.267 0.16-0.072 0.066-0.13 0.146-0.169 0.236l-0.002 0.004c-0.080 0.213-0.080 0.448 0 0.661 0.126 0.267 0.393 0.449 0.702 0.449 0.035 0 0.069-0.002 0.102-0.007l-0.004 0zM36.661 18.565h0.987v0.229h-1.291v-1.973h0.309l-0.005 1.744zM38.677 18.795h-0.309v-1.973h0.309v1.973zM39.829 16.827c0.021 0.011 0.037 0.021 0.048 0.037l1.323 1.488v-1.541h0.267v1.984h-0.149c-0.027 0-0.048 0-0.069-0.011-0.019-0.010-0.034-0.022-0.048-0.037l-0-0-1.323-1.493v1.541h-0.261v-1.973h0.213zM43.755 16.816v0.213h-1.099v0.656h0.891v0.213h-0.891v0.672h1.099v0.213h-1.419v-1.968h1.419zM11.285 4.619l13.76 3.371v11.819l-13.76-3.371v-11.819zM10.405 3.605v13.408l15.52 3.808v-13.408l-15.525-3.803z"></path>
<path  d="M18.72 27.040l-15.52-3.819v-13.392l15.52 3.808v13.397z"></path>
<path  d="M10.661 4.464l13.579 3.333-5.776 4.981-13.579-3.328 5.776-4.987zM10.405 3.611l-7.205 6.219 15.52 3.808 7.2-6.224-15.52-3.803zM19.595 26.283l6.331-5.467-6.331-1.552v7.019z"></path>
</symbol>

<symbol id="icon-client-one" viewBox="0 0 57 32">
<path  d="M20.267 3.733l3.733 3.536h-6.933v17.157h18.133v-6.56l3.733 3.531v-17.664h-18.667zM35.040 17.456l-10.608-10.032h10.608v10.027zM31.744 21.925h-11.808v-11.547h0.837v10.763h10.971v0.784zM22.725 26.72l-0.437 0.896-0.437-0.896h-0.363l0.64 1.2v0.693h0.325v-0.693l0.64-1.2h-0.373zM23.275 28.613l0.149-0.437h0.736l0.16 0.437h0.341l-0.72-1.893h-0.293l-0.72 1.893h0.347zM23.792 27.12l0.277 0.789h-0.549l0.272-0.789zM25.531 27.867c-0.043 0.066-0.069 0.146-0.069 0.233 0 0.001 0 0.001 0 0.002v-0c0 0.16 0.053 0.293 0.165 0.389 0.112 0.101 0.267 0.149 0.453 0.149s0.347-0.053 0.48-0.149l0.107 0.123h0.373l-0.283-0.325c0.107-0.149 0.16-0.341 0.16-0.576h-0.267c0 0.128-0.032 0.245-0.085 0.347l-0.363-0.427 0.128-0.101c0.091-0.064 0.16-0.128 0.197-0.197 0.037-0.061 0.058-0.134 0.058-0.212 0-0.12-0.051-0.229-0.133-0.305l-0-0c-0.085-0.076-0.197-0.123-0.321-0.123-0.005 0-0.011 0-0.016 0l0.001-0c-0.009-0.001-0.020-0.001-0.030-0.001-0.13 0-0.248 0.049-0.338 0.129l0-0c-0.083 0.084-0.134 0.199-0.134 0.326 0 0.009 0 0.018 0.001 0.027l-0-0.001c0 0.064 0.016 0.128 0.043 0.192s0.080 0.144 0.155 0.235c-0.11 0.073-0.204 0.162-0.281 0.264l-0.002 0.003zM26.384 28.283c-0.081 0.066-0.185 0.106-0.299 0.107h-0c-0.005 0-0.010 0-0.016 0-0.080 0-0.153-0.031-0.208-0.081l0 0c-0.053-0.051-0.086-0.123-0.086-0.203 0-0.004 0-0.008 0-0.011l-0 0.001c0-0.107 0.053-0.192 0.16-0.272l0.037-0.032 0.411 0.491zM26.048 27.44c-0.091-0.107-0.133-0.197-0.133-0.272 0-0.064 0.016-0.117 0.053-0.16 0.034-0.036 0.082-0.059 0.136-0.059 0.003 0 0.006 0 0.008 0h-0c0.059 0 0.107 0.016 0.144 0.053 0.037 0.032 0.053 0.075 0.053 0.123 0 0.075-0.027 0.139-0.080 0.187l-0.037 0.032-0.144 0.096zM29.131 28.475c0.133-0.117 0.208-0.272 0.224-0.48h-0.325c-0.016 0.139-0.059 0.235-0.123 0.293-0.069 0.059-0.16 0.085-0.293 0.085-0.005 0-0.011 0-0.016 0-0.126 0-0.237-0.063-0.303-0.159l-0.001-0.001c-0.075-0.107-0.112-0.267-0.112-0.469v-0.165c0-0.203 0.037-0.357 0.117-0.459 0.075-0.107 0.187-0.16 0.331-0.16 0.123 0 0.213 0.032 0.277 0.091s0.107 0.16 0.123 0.293h0.325c-0.010-0.189-0.092-0.358-0.218-0.48l-0-0c-0.126-0.107-0.291-0.172-0.47-0.172-0.013 0-0.025 0-0.038 0.001l0.002-0c-0.16 0-0.293 0.037-0.411 0.107-0.117 0.080-0.213 0.181-0.272 0.32-0.064 0.133-0.096 0.293-0.096 0.469v0.181c0 0.171 0.032 0.325 0.096 0.459s0.149 0.235 0.267 0.304c0.117 0.075 0.251 0.107 0.4 0.107 0.213 0 0.389-0.053 0.517-0.165zM31.067 28.208c0.064-0.144 0.096-0.304 0.096-0.491v-0.107c0-0.187-0.032-0.347-0.096-0.48-0.114-0.26-0.369-0.438-0.666-0.438-0.010 0-0.019 0-0.029 0.001l0.001-0c-0.149 0-0.288 0.037-0.405 0.112s-0.213 0.187-0.277 0.325c-0.064 0.144-0.101 0.304-0.101 0.491v0.107c0 0.181 0.037 0.341 0.101 0.48s0.16 0.245 0.277 0.32c0.123 0.075 0.261 0.112 0.411 0.112 0.16 0 0.293-0.037 0.416-0.107 0.117-0.080 0.213-0.187 0.272-0.325zM30.715 27.136c0.080 0.107 0.123 0.272 0.123 0.48v0.101c0 0.213-0.043 0.373-0.123 0.485-0.070 0.101-0.186 0.166-0.316 0.166-0.007 0-0.014-0-0.021-0.001l0.001 0c-0.004 0-0.009 0-0.015 0-0.132 0-0.249-0.065-0.321-0.164l-0.001-0.001c-0.078-0.124-0.124-0.274-0.124-0.436 0-0.017 0.001-0.035 0.002-0.052l-0 0.002v-0.107c0-0.208 0.043-0.363 0.123-0.48 0.072-0.098 0.186-0.161 0.315-0.161 0.007 0 0.015 0 0.022 0.001l-0.001-0c0.144 0 0.256 0.053 0.336 0.16z"></path>
</symbol>
<symbol id="icon-client-four" viewBox="0 0 57 32">
<path  d="M12.88 11.253c-1.28 0-2.32 0.923-2.32 2.059 0 1.141 1.040 2.059 2.315 2.059 1.28 0 2.32-0.917 2.32-2.059 0-1.136-1.040-2.059-2.315-2.059zM29.973 10.597c-0.005-1.579-0.715-3.093-1.973-4.213-1.248-1.084-2.889-1.744-4.684-1.744-0.016 0-0.033 0-0.049 0h0.003c-1.776 0-3.483 0.629-4.736 1.749-1.191 1.025-1.948 2.526-1.973 4.204l-0 0.004v8.704s13.413-1.328 13.413-8.704zM5.867 22.16c0 1.099 0.496 2.149 1.371 2.928 0.869 0.756 2.013 1.216 3.263 1.216 0.010 0 0.019-0 0.029-0h-0.001c1.237 0 2.421-0.437 3.296-1.216 0.827-0.714 1.353-1.758 1.371-2.925l0-0.003v-6.053s-9.328 0.923-9.328 6.053zM10.528 23.243c-0.24 0-0.48-0.059-0.677-0.181-0.195-0.114-0.348-0.28-0.445-0.479l-0.003-0.007c-0.059-0.122-0.093-0.265-0.093-0.416 0-0.076 0.009-0.149 0.025-0.22l-0.001 0.007c0.048-0.213 0.16-0.4 0.336-0.555 0.17-0.15 0.382-0.255 0.616-0.297l0.008-0.001c0.235-0.037 0.48-0.016 0.704 0.064s0.416 0.219 0.549 0.4c0.127 0.166 0.204 0.377 0.204 0.606 0 0.306-0.137 0.579-0.352 0.763l-0.001 0.001c-0.117 0.107-0.251 0.181-0.4 0.24-0.149 0.053-0.304 0.080-0.469 0.080zM19.957 22.645h-0.901v0.933h-0.469v-2.277h1.483v0.379h-1.013v0.587h0.901v0.379zM22.208 22.491c0 0.224-0.037 0.421-0.117 0.587-0.141 0.317-0.453 0.534-0.816 0.534-0.011 0-0.022-0-0.034-0.001l0.002 0c-0.009 0-0.021 0.001-0.032 0.001-0.362 0-0.674-0.212-0.819-0.518l-0.002-0.006c-0.074-0.161-0.118-0.35-0.118-0.549 0-0.013 0-0.026 0.001-0.039l-0 0.002v-0.101c0-0.229 0.037-0.427 0.123-0.592 0.146-0.317 0.461-0.534 0.826-0.534 0.008 0 0.015 0 0.023 0l-0.001-0c0.187 0 0.357 0.048 0.501 0.139 0.149 0.091 0.267 0.224 0.341 0.395 0.085 0.165 0.123 0.363 0.123 0.587v0.107zM21.733 22.384c0-0.235-0.043-0.416-0.128-0.539-0.076-0.113-0.203-0.187-0.347-0.187-0.005 0-0.011 0-0.016 0l0.001-0c-0.16 0-0.283 0.059-0.368 0.181s-0.128 0.304-0.128 0.539v0.112c0 0.235 0.043 0.411 0.128 0.539s0.213 0.192 0.373 0.192c0.155 0 0.272-0.059 0.357-0.181s0.128-0.304 0.128-0.539v-0.112zM23.728 22.981c0-0.091-0.032-0.16-0.091-0.203-0.098-0.064-0.212-0.115-0.333-0.147l-0.008-0.002c-0.16-0.053-0.288-0.107-0.384-0.16-0.256-0.139-0.389-0.325-0.389-0.56 0-0.128 0.037-0.235 0.107-0.331s0.165-0.171 0.299-0.229c0.128-0.053 0.272-0.080 0.437-0.080 0.16 0 0.304 0.032 0.432 0.091 0.128 0.053 0.224 0.139 0.299 0.251 0.069 0.107 0.107 0.229 0.107 0.363h-0.469c0-0.107-0.037-0.187-0.101-0.24-0.069-0.057-0.157-0.091-0.254-0.091-0.008 0-0.016 0-0.024 0.001l0.001-0c-0.007-0-0.016-0.001-0.025-0.001-0.091 0-0.174 0.028-0.244 0.076l0.001-0.001c-0.058 0.042-0.096 0.11-0.096 0.187 0 0.002 0 0.004 0 0.006v-0c0 0.075 0.037 0.133 0.112 0.187 0.075 0.048 0.187 0.096 0.331 0.139 0.267 0.080 0.459 0.181 0.587 0.299 0.117 0.117 0.176 0.267 0.176 0.443 0 0.197-0.069 0.352-0.219 0.464s-0.352 0.171-0.603 0.171c-0.004 0-0.010 0-0.015 0-0.168 0-0.328-0.035-0.473-0.099l0.008 0.003c-0.261-0.098-0.443-0.346-0.443-0.635 0-0.005 0-0.011 0-0.016v0.001h0.469c0 0.251 0.155 0.373 0.453 0.373 0.107 0 0.197-0.021 0.261-0.064 0.059-0.053 0.091-0.112 0.091-0.192zM26.235 21.68h-0.699v1.899h-0.469v-1.899h-0.693v-0.373h1.856v0.373zM27.867 22.587h-0.896v0.613h1.056v0.373h-1.525v-2.272h1.52v0.379h-1.051v0.544h0.896v0.368zM29.147 22.747h-0.373v0.832h-0.475v-2.277h0.848c0.267 0 0.475 0.059 0.619 0.181 0.149 0.117 0.219 0.288 0.219 0.507 0 0.16-0.032 0.283-0.101 0.389-0.064 0.107-0.165 0.187-0.304 0.245l0.491 0.933v0.021h-0.501l-0.427-0.832zM28.773 22.363h0.373c0.117 0 0.213-0.027 0.272-0.085 0.060-0.058 0.097-0.139 0.097-0.229 0-0.008-0-0.015-0.001-0.022l0 0.001c0-0.107-0.027-0.192-0.091-0.251-0.059-0.064-0.155-0.096-0.277-0.096h-0.373v0.683zM31.611 22.773v0.8h-0.469v-2.272h0.885c0.171 0 0.32 0.032 0.453 0.096 0.128 0.059 0.229 0.149 0.299 0.267 0.069 0.112 0.107 0.245 0.107 0.389 0 0.224-0.080 0.4-0.235 0.533-0.149 0.123-0.363 0.187-0.629 0.187h-0.411zM31.611 22.4h0.416c0.123 0 0.219-0.032 0.283-0.091 0.069-0.059 0.101-0.144 0.101-0.251 0-0.003 0-0.007 0-0.011 0-0.099-0.039-0.189-0.102-0.256l0 0c-0.066-0.066-0.158-0.107-0.259-0.107-0.003 0-0.005 0-0.008 0h-0.432v0.709zM34.576 22.592h-0.901v0.608h1.056v0.373h-1.525v-2.272h1.52v0.379h-1.051v0.544h0.901v0.368zM36.752 21.685h-0.699v1.893h-0.469v-1.899h-0.688v-0.373h1.856v0.373zM38.389 22.592h-0.907v0.608h1.061v0.373h-1.531v-2.272h1.52v0.379h-1.040v0.544h0.901v0.368zM39.659 22.747h-0.373v0.832h-0.469v-2.277h0.848c0.267 0 0.48 0.059 0.624 0.181 0.144 0.117 0.213 0.288 0.213 0.507 0 0.16-0.032 0.283-0.096 0.389-0.069 0.107-0.171 0.187-0.309 0.245l0.496 0.933v0.021h-0.507l-0.427-0.832zM39.285 22.363h0.379c0.117 0 0.213-0.027 0.277-0.085 0.060-0.058 0.097-0.139 0.097-0.229 0-0.008-0-0.015-0.001-0.022l0 0.001c0-0.107-0.032-0.192-0.096-0.251-0.053-0.064-0.149-0.096-0.277-0.096h-0.373v0.683zM42.043 22.981c0-0.091-0.032-0.16-0.096-0.203-0.097-0.063-0.208-0.114-0.328-0.147l-0.008-0.002c-0.16-0.053-0.293-0.107-0.384-0.16-0.261-0.139-0.389-0.325-0.389-0.56 0-0.128 0.032-0.235 0.107-0.331 0.064-0.096 0.165-0.171 0.293-0.229 0.133-0.053 0.277-0.080 0.437-0.080s0.309 0.032 0.437 0.091c0.128 0.053 0.224 0.139 0.293 0.251 0.069 0.107 0.107 0.229 0.107 0.363h-0.469c0-0.107-0.032-0.187-0.096-0.24-0.069-0.057-0.157-0.091-0.254-0.091-0.008 0-0.016 0-0.024 0.001l0.001-0c-0.007-0-0.016-0.001-0.025-0.001-0.091 0-0.175 0.028-0.244 0.076l0.001-0.001c-0.058 0.042-0.096 0.11-0.096 0.187 0 0.002 0 0.004 0 0.006v-0c0 0.075 0.037 0.133 0.107 0.187 0.080 0.048 0.187 0.096 0.336 0.139 0.267 0.080 0.459 0.181 0.581 0.299s0.181 0.267 0.181 0.443c0 0.197-0.075 0.352-0.224 0.464s-0.347 0.171-0.603 0.171c-0.004 0-0.010 0-0.015 0-0.168 0-0.328-0.035-0.473-0.099l0.008 0.003c-0.261-0.098-0.443-0.346-0.443-0.635 0-0.005 0-0.011 0-0.016v0.001h0.475c0 0.251 0.149 0.373 0.448 0.373 0.112 0 0.203-0.021 0.267-0.064 0.059-0.053 0.091-0.112 0.091-0.192z"></path>
</symbol>
<symbol id="icon-client-five" viewBox="0 0 57 32">
<path  d="M14.272 23.861c0.128 0.144 0.197 0.331 0.192 0.517 0.011 0.123-0.016 0.245-0.069 0.363-0.053 0.112-0.128 0.213-0.229 0.299-0.256 0.171-0.565 0.256-0.885 0.24h-1.547v-3.307h1.515c0.025-0.002 0.054-0.003 0.083-0.003 0.283 0 0.545 0.085 0.765 0.23l-0.005-0.003c0.096 0.075 0.176 0.171 0.224 0.277 0.053 0.107 0.075 0.224 0.069 0.341 0.011 0.181-0.053 0.357-0.176 0.501-0.117 0.133-0.277 0.224-0.459 0.261 0.203 0.032 0.389 0.133 0.523 0.283zM12.459 23.36h0.64c0.149 0.011 0.299-0.027 0.416-0.107 0.053-0.043 0.085-0.091 0.107-0.149 0.027-0.053 0.037-0.117 0.032-0.176 0.001-0.010 0.002-0.022 0.002-0.034 0-0.051-0.010-0.1-0.029-0.145l0.001 0.002c-0.025-0.057-0.062-0.105-0.106-0.144l-0.001-0c-0.105-0.072-0.234-0.114-0.373-0.114-0.019 0-0.038 0.001-0.056 0.002l0.002-0h-0.64v0.864zM13.579 24.629c0.053-0.043 0.091-0.096 0.117-0.155 0.027-0.053 0.037-0.123 0.037-0.181 0-0.006 0.001-0.013 0.001-0.020 0-0.060-0.014-0.118-0.039-0.169l0.001 0.002c-0.029-0.062-0.071-0.114-0.122-0.154l-0.001-0.001c-0.111-0.074-0.247-0.119-0.394-0.119-0.015 0-0.030 0-0.045 0.001l0.002-0h-0.683v0.907h0.693c0.149 0.011 0.304-0.032 0.427-0.117zM17.371 25.28l-0.837-1.291h-0.32v1.291h-0.725v-3.307h1.376c0.029-0.002 0.064-0.003 0.099-0.003 0.325 0 0.624 0.107 0.865 0.289l-0.004-0.003c0.203 0.182 0.33 0.446 0.33 0.739 0 0.239-0.084 0.457-0.224 0.628l0.001-0.002c-0.176 0.181-0.411 0.299-0.661 0.336l0.896 1.323h-0.789zM16.208 23.536h0.597c0.411 0 0.619-0.16 0.619-0.496 0-0.006 0-0.014 0-0.021 0-0.066-0.014-0.128-0.039-0.184l0.001 0.003c-0.028-0.067-0.068-0.124-0.117-0.17l-0-0c-0.112-0.085-0.254-0.136-0.408-0.136-0.020 0-0.039 0.001-0.058 0.002l0.003-0h-0.603l0.005 1.003zM21.339 24.613h-1.445l-0.256 0.667h-0.763l1.333-3.269h0.821l1.323 3.269h-0.763l-0.256-0.667zM21.147 24.112l-0.533-1.392-0.528 1.392h1.061zM26.304 25.28h-0.72l-1.616-2.245v2.24h-0.715v-3.296h0.72l1.616 2.256v-2.256h0.72v3.301zM30.416 24.485c-0.149 0.251-0.373 0.453-0.651 0.587-0.315 0.144-0.661 0.213-1.013 0.208h-1.28v-3.307h1.28c0.352-0.005 0.699 0.064 1.013 0.208 0.277 0.128 0.501 0.325 0.651 0.576 0.14 0.249 0.223 0.547 0.223 0.864s-0.083 0.615-0.227 0.873l0.005-0.009zM29.595 24.411c0.203-0.219 0.32-0.501 0.32-0.789s-0.117-0.571-0.32-0.789c-0.223-0.175-0.507-0.28-0.816-0.28-0.032 0-0.063 0.001-0.095 0.003l0.004-0h-0.496v2.133h0.501c0.325 0.021 0.651-0.080 0.901-0.277zM21.792 3.611s9.296 3.211 9.099 7.867v7.867s-9.291-3.216-9.099-7.867v-7.867zM39.179 17.504c1.686-1.070 3.696-1.784 5.855-1.99l0.054-0.004v-2.464c-2.445 0.858-4.467 2.411-5.884 4.421l-0.025 0.038z"></path>
<path  d="M38.123 18.24c1.526-2.691 3.961-4.717 6.878-5.682l0.087-0.025v-7.109s-13.248 4.592-12.965 11.216v11.2s0.587-0.203 1.52-0.587c0-0.363 0-0.72 0.043-1.083 0.331-3.247 1.986-6.053 4.41-7.905l0.027-0.020z"></path>
<path  d="M36.864 22.405c0.069-0.773 0.224-1.547 0.464-2.293-1.669 1.773-2.721 4.143-2.805 6.757l-0 0.016c0.752-0.336 1.627-0.747 2.549-1.232-0.235-1.067-0.304-2.16-0.208-3.248zM37.387 22.448c-0.085 0.981-0.027 1.973 0.165 2.933 3.621-1.979 7.685-5.040 7.531-8.747v-0.32c-2.658 0.265-5.026 1.334-6.901 2.957l0.016-0.013c-0.415 0.933-0.701 2.015-0.803 3.15l-0.003 0.039z"></path>
</symbol>
<symbol id="icon-astronaut" viewBox="0 0 32 32">
<path fill="#2196f3" style="fill: var(--color4, #2196f3)" d="M31.97 4.52c-0.064-0.19-0.227-0.331-0.427-0.36l-0.003-0-1.9-0.28-0.86-1.73c-0.18-0.36-0.78-0.36-0.96 0l-0.85 1.73-1.91 0.28c-0.259 0.043-0.453 0.265-0.453 0.533 0 0.147 0.059 0.28 0.154 0.377l-0-0 1.38 1.35-0.32 1.9c-0.040 0.2 0.050 0.4 0.21 0.52 0.17 0.12 0.38 0.14 0.56 0.040l1.71-0.9 1.71 0.9c0.071 0.037 0.156 0.059 0.246 0.059 0.298 0 0.54-0.242 0.54-0.54 0-0.028-0.002-0.055-0.006-0.082l0 0.003-0.33-1.9 1.38-1.35c0.15-0.14 0.2-0.35 0.14-0.55zM29.51 5.85c-0.098 0.096-0.158 0.23-0.158 0.378 0 0.033 0.003 0.065 0.009 0.096l-0-0.003 0.19 1.12-1-0.53c-0.072-0.039-0.158-0.063-0.25-0.063s-0.178 0.023-0.253 0.064l0.003-0.001-1 0.53 0.2-1.12c0.004-0.025 0.007-0.054 0.007-0.084 0-0.152-0.064-0.289-0.166-0.386l-0-0-0.81-0.79 1.12-0.16c0.178-0.028 0.325-0.142 0.399-0.297l0.001-0.003 0.5-1 0.5 1c0.080 0.16 0.23 0.27 0.4 0.3l1.12 0.16-0.8 0.8zM26.13 20.52h-1.060v1.070h1.060v-1.070zM26.13 22.66h-1.060v1.060h1.060v-1.060zM27.2 21.59h-1.070v1.070h1.070v-1.070zM25.070 21.59h-1.070v1.070h1.070v-1.070zM22.4 26.39h-1.070v1.070h1.070v-1.070zM22.4 28.52h-1.070v1.070h1.070v-1.070zM23.47 27.46h-1.070v1.060h1.070v-1.060zM21.33 27.46h-1.060v1.060h1.060v-1.060zM16 24.26h-1.070v1.060h1.070v-1.060zM16 26.39h-1.070v1.070h1.070v-1.070zM17.070 25.32h-1.070v1.070h1.070v-1.070zM14.93 25.32h-1.060v1.070h1.060v-1.070zM5.87 6.12h-1.070v1.080h1.070v-1.080zM5.87 8.26h-1.070v1.060h1.070v-1.060zM6.93 7.19h-1.060v1.070h1.060v-1.070zM4.8 7.19h-1.070v1.070h1.070v-1.070z"></path>
<path fill="#212121" style="fill: var(--color5, #212121)" d="M24.71 14.16c-0.28-0.39-0.7-0.64-1.18-0.7-0.48-0.070-0.96 0.050-1.34 0.35l-1.26 0.96-1.9 1.41-1.35-0.54c2.399-1.127 4.030-3.523 4.030-6.3 0-3.812-3.073-6.906-6.876-6.94l-0.003-0c-0 0-0 0-0 0-3.833 0-6.943 3.099-6.96 6.928v0.002c0 1.39 0.42 2.68 1.12 3.76l-2.79-0.020-0.16 0.030-0.030 0.020h-0.020l-3.24 1.6-1.89 0.9c-0.515 0.318-0.854 0.879-0.854 1.52 0 0.983 0.797 1.78 1.78 1.78 0.001 0 0.003 0 0.004 0h-0c0.3 0.010 0.58-0.060 0.84-0.2l1.4-0.74 2.26-1.17h1.35l-5.44 5.39-1.34 1.35c-0.304 0.299-0.492 0.715-0.492 1.175s0.188 0.876 0.491 1.175l0 0c0.302 0.302 0.719 0.488 1.18 0.488s0.878-0.187 1.18-0.488l-0 0 1.31-1.3 1.74-1.3 0.9 0.89-1.76 1.75-1.34 1.34c-0.307 0.3-0.497 0.718-0.497 1.18s0.19 0.88 0.496 1.18l0 0c0.302 0.302 0.719 0.488 1.18 0.488s0.878-0.187 1.18-0.488l-0 0 3.48-3.47 1.030-1.020 5.17-5.66 3.47 0.5h0.070c0.070 0 0.13-0.020 0.2-0.040l0.1-0.050 3.21-2.13 0.030-0.030 0.040-0.030 1.27-1.19c0.67-0.62 0.76-1.63 0.22-2.36zM2.14 17.77c-0.098 0.054-0.214 0.086-0.338 0.086-0.079 0-0.156-0.013-0.227-0.037l0.005 0.001c-0.291-0.097-0.497-0.367-0.497-0.685 0-0.234 0.112-0.443 0.285-0.574l0.002-0.001 1.31-0.63 0.45 1.31-0.99 0.53zM5.64 15.94l-1.55 0.8-0.44-1.28 2.030-1-0.040 1.48zM20.74 9.32c0 0.92-0.22 1.79-0.6 2.56l-4.18-1.9c-0.046-0.578-0.349-1.077-0.794-1.386l-0.006-0.004 1.47-4.86c2.396 0.778 4.098 2.99 4.1 5.6v0zM8.94 9.32c0.017-3.24 2.648-5.859 5.89-5.859 0.268 0 0.532 0.018 0.79 0.053l-0.030-0.003-1.44 4.75h-0.050c-0.041-0.003-0.089-0.005-0.137-0.005-1.033 0-1.87 0.837-1.87 1.87s0.837 1.87 1.87 1.87c0.048 0 0.096-0.002 0.143-0.005l-0.006 0c0.7 0 1.3-0.38 1.62-0.95l3.86 1.76c-1.087 1.455-2.805 2.387-4.74 2.387-3.247 0-5.881-2.623-5.9-5.865v-0.002zM14.9 10.12c0 0.442-0.358 0.8-0.8 0.8s-0.8-0.358-0.8-0.8v0c0-0.442 0.358-0.8 0.8-0.8s0.8 0.358 0.8 0.8v0zM2.46 25.15c-0.109 0.109-0.259 0.176-0.425 0.176s-0.316-0.067-0.425-0.176l-0-0c-0.109-0.109-0.176-0.259-0.176-0.425s0.067-0.316 0.176-0.425l0-0 0.96-0.95 0.85 0.84-0.96 0.96zM5.68 28.88c-0.109 0.112-0.261 0.182-0.43 0.182s-0.321-0.070-0.43-0.181l-0-0c-0.106-0.108-0.171-0.256-0.171-0.42s0.065-0.312 0.172-0.42l-0 0 0.97-0.96 0.85 0.85-0.96 0.95zM9.16 25.41l-1.77 1.76-0.85-0.85 1.76-1.75c0.050-0.040 0.070-0.090 0.1-0.14l0.020-0.040c0.020-0.040 0.020-0.080 0.030-0.13l0.010-0.070-0.020-0.1c0-0.040 0-0.070-0.020-0.1-0.024-0.054-0.054-0.1-0.091-0.141l0.001 0.001-0.020-0.040-1.61-1.6-0.060-0.040c-0.026-0.018-0.056-0.035-0.087-0.049l-0.003-0.001c-0.026-0.015-0.055-0.028-0.086-0.039l-0.004-0.001c-0.029-0.009-0.063-0.016-0.098-0.020l-0.002-0c-0.015-0.002-0.032-0.003-0.050-0.003s-0.035 0.001-0.052 0.003l0.002-0-0.1 0.030c-0.038 0.011-0.071 0.024-0.103 0.041l-0.058 0.029-1.77 1.33-0.9-0.9 2.4-2.39 4.36 4.3-0.93 0.91zM15.98 18.39h-0.050c-0.003-0-0.007-0-0.011-0-0.107 0-0.206 0.030-0.291 0.081l0.002-0.001c-0.030 0.018-0.056 0.038-0.080 0.060l0-0-0.040 0.030-4.7 5.15-4.33-4.26 2.84-2.82c0.093-0.095 0.151-0.226 0.151-0.37 0-0.293-0.237-0.53-0.53-0.53-0 0-0 0-0.001 0h-2.22l0.030-1.6 3.1 0.020c1.264 1.296 3.027 2.099 4.977 2.099 0.454 0 0.897-0.043 1.326-0.126l-0.044 0.007c0.040 0.030 0.080 0.070 0.13 0.090l2.41 0.96 0.33 1.64-3-0.43zM20.020 18.57l-0.31-1.56 1.44-1.080 0.95 1.26-2.080 1.38zM23.77 15.74l-0.83 0.79-0.94-1.24 0.84-0.64c0.121-0.092 0.274-0.147 0.439-0.147 0.036 0 0.070 0.003 0.105 0.007l-0.004-0c0.352 0.051 0.619 0.351 0.619 0.713 0 0.203-0.084 0.386-0.219 0.517l-0 0z"></path>
<path fill="#212121" style="fill: var(--color5, #212121)" d="M13.6 18.54l-2.14-2.13c-0.096-0.096-0.229-0.155-0.375-0.155s-0.279 0.059-0.375 0.155v0l-2.15 2.13c-0.097 0.098-0.156 0.232-0.156 0.38s0.060 0.282 0.156 0.38l-0-0 2.15 2.13c0.097 0.094 0.229 0.151 0.375 0.151s0.278-0.058 0.375-0.152l-0 0 2.14-2.13c0.097-0.098 0.156-0.232 0.156-0.38s-0.060-0.282-0.156-0.38l0 0zM11.080 20.3l-1.38-1.38 1.38-1.38 1.39 1.38-1.39 1.38zM17.16 5.070l-0.25 1.040c0.070 0.010 1.73 0.45 1.73 2.15h1.070c0-2.020-1.66-2.97-2.55-3.19zM19.71 9.32h-1.070v1.070h1.070v-1.070z"></path>
</symbol>
<symbol id="icon-antenna" viewBox="0 0 32 32">
<path fill="#212121" style="fill: var(--color5, #212121)" d="M30.775 22.098l-8.443-8.503 0.937-4.617c0.242 0.091 0.498 0.142 0.759 0.146h0.005c0.006 0 0.014 0 0.022 0 1.192 0 2.158-0.966 2.158-2.158s-0.966-2.158-2.158-2.158c-1.192 0-2.158 0.966-2.158 2.158 0 0.259 0.046 0.507 0.129 0.737l-0.005-0.015-4.955 0.603-8.091-8.133c-0.097-0.098-0.231-0.159-0.379-0.16h-0c-0.137 0-0.274 0.055-0.37 0.155l-1.513 1.504c-0.21 0.21-0.21 0.549 0 0.754l0.814 0.823c-1.143 2.062-1.816 4.522-1.816 7.14 0 4.106 1.656 7.824 4.336 10.525l-0.001-0.001c0.046 0.046 0.091 0.073 0.146 0.101-0.032 0.183-0.050 0.366-0.050 0.549v6.185h-6.4c0 0 0 0 0 0-1.473 0-2.667 1.193-2.67 2.665v1.065c0 0.297 0.238 0.535 0.535 0.535h24.535c0.293 0 0.53-0.238 0.53-0.535v-1.065c-0.003-1.471-1.194-2.663-2.665-2.665h-6.4v-2.743c0.915 0.2 1.966 0.315 3.043 0.315 2.581 0 5.008-0.659 7.123-1.817l-0.077 0.039 0.818 0.823c0.096 0.101 0.233 0.16 0.375 0.16 0.137 0 0.274-0.059 0.375-0.155l1.509-1.509c0.21-0.206 0.21-0.544 0-0.75zM23.278 6.235c0.193-0.192 0.458-0.311 0.752-0.311 0.588 0 1.065 0.477 1.065 1.065s-0.476 1.064-1.063 1.065h-0c-0.001 0-0.001 0-0.002 0-0.588 0-1.065-0.477-1.065-1.065 0-0.297 0.122-0.566 0.318-0.759l0-0zM22.025 9.737l-0.599 2.944-1.175-1.179 1.774-1.765zM21.417 8.837l-1.92 1.906-1.486-1.49 3.406-0.416zM24.005 28.8c0.884 0 1.6 0.716 1.6 1.6v0 0.535h-23.465v-0.535c0-0.884 0.716-1.6 1.6-1.6v0h20.261zM16.539 26.665v1.070h-5.339v-1.070h5.335zM11.2 25.6v-4.055c0-1.294 1.198-2.345 2.665-2.345 1.472 0 2.67 1.051 2.67 2.345v4.055h-5.335zM17.6 23.904v-2.359c0-1.879-1.673-3.41-3.735-3.41-0.018-0-0.040-0-0.062-0-1.351 0-2.537 0.705-3.211 1.768l-0.009 0.016c-2.359-2.481-3.809-5.845-3.809-9.548 0-2.314 0.567-4.496 1.569-6.415l-0.036 0.077 18.606 18.711c-1.822 0.946-3.978 1.501-6.264 1.501-1.080 0-2.132-0.124-3.141-0.358l0.093 0.018zM28.891 23.218l-0.754-0.754-20.302-20.425 0.754-0.75 21.061 21.179-0.759 0.75z"></path>
<path fill="#2196f3" style="fill: var(--color4, #2196f3)" d="M13.874 20.265c-0.001 0-0.003 0-0.005 0-0.884 0-1.6 0.716-1.6 1.6 0 0.882 0.714 1.597 1.595 1.6h0.005c0.001 0 0.001 0 0.002 0 0.884 0 1.6-0.716 1.6-1.6s-0.715-1.599-1.598-1.6h-0zM14.249 22.245c-0.097 0.096-0.23 0.155-0.377 0.155-0.295 0-0.535-0.239-0.535-0.535s0.238-0.533 0.532-0.535h0c0.294 0.001 0.533 0.24 0.533 0.535 0 0.148-0.060 0.283-0.158 0.379l-0 0z"></path>
</symbol>
<symbol id="icon-smartphone" viewBox="0 0 20 32">
<path  d="M17 0h-14c-1.654 0-3 1.346-3 3v26c0 1.654 1.346 3 3 3h14c1.654 0 3-1.346 3-3v-26c0-1.654-1.346-3-3-3zM3 2h14c0.552 0 1 0.448 1 1v0 21h-16v-21c0-0.552 0.448-1 1-1v0zM17 30h-14c-0.552 0-1-0.448-1-1v0-3h16v3c0 0.552-0.448 1-1 1v0z"></path>
<path  d="M4.708 27.478c0.18 0.163 0.293 0.399 0.293 0.66s-0.113 0.497-0.292 0.659l-0.001 0.001c-0.186 0.17-0.435 0.275-0.708 0.275s-0.522-0.104-0.709-0.275l0.001 0.001c-0.18-0.163-0.293-0.399-0.293-0.66s0.113-0.497 0.292-0.659l0.001-0.001c0.186-0.17 0.435-0.275 0.708-0.275s0.522 0.104 0.709 0.275l-0.001-0.001z"></path>
</symbol>
<symbol id="icon-envelope" viewBox="0 0 43 32">
<path  d="M38.667 0h-34.667c-2.205 0-4 1.795-4 4v24c0 2.205 1.795 4 4 4h34.667c2.205 0 4-1.795 4-4v-24c0-2.205-1.795-4-4-4zM38.667 2.667c0.181 0 0.355 0.037 0.512 0.104l-17.845 15.467-17.845-15.467c0.151-0.065 0.327-0.104 0.512-0.104h34.667zM38.667 29.333h-34.667c-0.736 0-1.333-0.597-1.333-1.333v0-22.413l17.792 15.421c0.233 0.203 0.539 0.327 0.875 0.327s0.642-0.124 0.876-0.328l-0.002 0.001 17.792-15.421v22.413c0 0.736-0.597 1.333-1.333 1.333v0z"></path>
</symbol>
<symbol id="icon-close" viewBox="0 0 32 32">
<path d="M32 3.223l-3.223-3.223-12.777 12.777-12.777-12.777-3.223 3.223 12.777 12.777-12.777 12.777 3.223 3.223 12.777-12.777 12.777 12.777 3.223-3.223-12.777-12.777 12.777-12.777z"></path>
</symbol>
<symbol id="icon-form-phone" viewBox="0 0 32 32">
<path d="M24.882 19.774l-3.268-0.373c-0.090-0.011-0.194-0.018-0.3-0.018-0.707 0-1.347 0.287-1.81 0.75l-2.368 2.368c-3.669-1.894-6.585-4.81-8.427-8.372l-0.051-0.108 2.382-2.377c0.463-0.463 0.75-1.103 0.75-1.81 0-0.106-0.006-0.21-0.019-0.312l0.001 0.012-0.373-3.243c-0.155-1.287-1.24-2.276-2.557-2.276-0.001 0-0.002 0-0.003 0h-2.226c-1.454 0-2.663 1.209-2.574 2.661 0.683 10.987 9.47 19.762 20.444 20.444 1.452 0.089 2.663-1.12 2.663-2.574v-2.226c0-0.004 0-0.008 0-0.012 0-1.308-0.985-2.386-2.253-2.532l-0.012-0.001z"></path>
</symbol>
<symbol id="icon-form-person" viewBox="0 0 32 32">
<path d="M16 16c2.946 0 5.333-2.388 5.333-5.333s-2.388-5.333-5.333-5.333v0c-2.946 0-5.333 2.388-5.333 5.333s2.388 5.333 5.333 5.333v0zM16 18.667c-3.561 0-10.667 1.787-10.667 5.333v1.333c0 0.732 0.599 1.333 1.333 1.333h18.667c0.732 0 1.333-0.601 1.333-1.333v-1.333c0-3.547-7.108-5.333-10.667-5.333z"></path>
</symbol>
<symbol id="icon-form-check" viewBox="0 0 32 32">
<path fill="#fff" style="fill: var(--color1, #fff); stroke: var(--color1, #fff)" stroke="#fff" stroke-linejoin="miter" stroke-linecap="butt" stroke-miterlimit="4" stroke-width="0.4" d="M7.914 16.504l-0.138-0.132-0.138 0.13-1.928 1.828 0.152 0.146 7.13 6.8 0.138-0.132 15.16-14.462-0.152-0.144-1.902-1.814-0.138 0.132-13.106 12.492-5.078-4.844z"></path>
</symbol>
<symbol id="icon-form-email" viewBox="0 0 32 32">
<path d="M26.667 5.333h-21.333c-1.467 0-2.652 1.2-2.652 2.667l-0.014 16c0 1.467 1.2 2.667 2.667 2.667h21.333c1.467 0 2.667-1.2 2.667-2.667v-16c0-1.467-1.2-2.667-2.667-2.667zM26.133 11.001l-9.426 5.892c-0.201 0.126-0.446 0.2-0.708 0.2s-0.506-0.075-0.713-0.204l0.006 0.003-9.426-5.892c-0.336-0.201-0.557-0.562-0.557-0.975 0-0.625 0.507-1.132 1.132-1.132 0.233 0 0.449 0.070 0.629 0.19l-0.004-0.003 8.933 5.586 8.933-5.588c0.176-0.118 0.392-0.188 0.624-0.188 0.625 0 1.132 0.507 1.132 1.132 0 0.413-0.221 0.775-0.552 0.972l-0.005 0.003z"></path>
</symbol>
<symbol id="icon-icon-send" viewBox="0 0 32 32">
<path fill="#fff" style="fill: var(--color1, #fff)" d="M32 0l-32 18 10.227 3.787 15.773-14.787-11.997 16.187 0.009 0.003-0.012-0.003v8.813l5.735-6.691 7.267 2.691 4.999-28z"></path>
</symbol>

</defs>
</svg>
